<?xml version="1.0" encoding="UTF-8"?>
<svg width="200px" height="220px" viewBox="0 0 200 220" xmlns="http://www.w3.org/2000/svg">
  <!-- Robot Head -->
  <rect x="50" y="20" width="100" height="80" rx="15" fill="#1E90FF" stroke="#000" stroke-width="2"/>
  <!-- Robot Eyes -->
  <circle cx="80" cy="45" r="12" fill="white" stroke="#000" stroke-width="2"/>
  <circle cx="120" cy="45" r="12" fill="white" stroke="#000" stroke-width="2"/>
  <circle cx="80" cy="45" r="6" fill="#000"/>
  <circle cx="120" cy="45" r="6" fill="#000"/>
  <!-- Robot Smile -->
  <path d="M75,70 Q100,90 125,70" fill="none" stroke="#000" stroke-width="3" stroke-linecap="round"/>
  <!-- Robot Antenna -->
  <line x1="100" y1="20" x2="100" y2="5" stroke="#000" stroke-width="3"/>
  <circle cx="100" cy="5" r="5" fill="#FFD700"/>
  <!-- Robot Body -->
  <rect x="60" y="100" width="80" height="70" rx="10" fill="#FFD700" stroke="#000" stroke-width="2"/>
  <!-- Robot Buttons -->
  <circle cx="100" cy="120" r="8" fill="#F44336" stroke="#000"/>
  <circle cx="100" cy="145" r="8" fill="#4CAF50" stroke="#000"/>
  <!-- Robot Arms -->
  <rect x="20" y="110" width="40" height="15" rx="5" fill="#1E90FF" stroke="#000" stroke-width="2"/>
  <rect x="140" y="110" width="40" height="15" rx="5" fill="#1E90FF" stroke="#000" stroke-width="2"/>
  <!-- Robot Legs -->
  <rect x="70" y="170" width="20" height="40" rx="5" fill="#1E90FF" stroke="#000" stroke-width="2"/>
  <rect x="110" y="170" width="20" height="40" rx="5" fill="#1E90FF" stroke="#000" stroke-width="2"/>
  <!-- Robot Feet -->
  <rect x="65" y="210" width="30" height="10" rx="5" fill="#000"/>
  <rect x="105" y="210" width="30" height="10" rx="5" fill="#000"/>
  <!-- Code Symbol -->
  <text x="88" y="135" font-family="monospace" font-size="24" font-weight="bold" fill="#000">{}</text>
</svg>